<svg width="173" height="33" viewBox="0 0 173 33" fill="none" xmlns="http://www.w3.org/2000/svg">
<path d="M0.348633 28V1.69531H9.5625C12.7542 1.69531 15.1751 2.30957 16.8252 3.53809C18.4753 4.75456 19.3003 6.54313 19.3003 8.90381C19.3003 10.1925 18.9691 11.3307 18.3066 12.3184C17.6442 13.2939 16.7228 14.0106 15.5425 14.4683C16.8914 14.8055 17.9513 15.486 18.7222 16.5098C19.505 17.5335 19.8965 18.7861 19.8965 20.2676C19.8965 22.7969 19.0895 24.7119 17.4756 26.0127C15.8617 27.3135 13.5612 27.9759 10.5742 28H0.348633ZM5.76855 16.5459V23.646H10.4116C11.6883 23.646 12.682 23.3449 13.3926 22.7427C14.1152 22.1284 14.4766 21.2853 14.4766 20.2134C14.4766 17.8045 13.23 16.582 10.7368 16.5459H5.76855ZM5.76855 12.7158H9.7793C12.5133 12.6676 13.8804 11.5776 13.8804 9.4458C13.8804 8.25342 13.5311 7.39827 12.8325 6.88037C12.146 6.35042 11.056 6.08545 9.5625 6.08545H5.76855V12.7158ZM35.3433 26.0127C34.0545 27.5785 32.272 28.3613 29.9956 28.3613C27.8999 28.3613 26.298 27.7591 25.1899 26.5547C24.0939 25.3503 23.5339 23.5858 23.5098 21.2612V8.45215H28.731V21.0806C28.731 23.116 29.6584 24.1338 31.5132 24.1338C33.2837 24.1338 34.5002 23.5195 35.1626 22.291V8.45215H40.4019V28H35.4878L35.3433 26.0127ZM50.3384 23.7905H59.8955V28H43.6719V24.8203L52.8677 12.6797H43.9429V8.45215H59.6064V11.5415L50.3384 23.7905ZM69.1636 23.7905H78.7207V28H62.4971V24.8203L71.6929 12.6797H62.7681V8.45215H78.4316V11.5415L69.1636 23.7905ZM103.905 15.4438C103.905 17.9009 103.508 20.0387 102.713 21.8574C101.918 23.6641 100.816 25.1154 99.4067 26.2114L103.779 29.644L100.328 32.6973L94.7275 28.1987C94.0892 28.3071 93.4268 28.3613 92.7402 28.3613C90.5602 28.3613 88.6151 27.8374 86.9048 26.7896C85.1945 25.7417 83.8696 24.2482 82.9302 22.3091C81.9907 20.3579 81.515 18.1177 81.5029 15.5884V14.2876C81.5029 11.6981 81.9666 9.42171 82.894 7.4585C83.8335 5.48324 85.1523 3.97168 86.8506 2.92383C88.5609 1.86393 90.512 1.33398 92.7041 1.33398C94.8962 1.33398 96.8413 1.86393 98.5396 2.92383C100.25 3.97168 101.569 5.48324 102.496 7.4585C103.436 9.42171 103.905 11.6921 103.905 14.2695V15.4438ZM98.4131 14.2515C98.4131 11.4933 97.9193 9.39762 96.9316 7.96436C95.944 6.53109 94.5348 5.81445 92.7041 5.81445C90.8854 5.81445 89.4823 6.52507 88.4946 7.94629C87.507 9.35547 87.0072 11.4271 86.9951 14.1611V15.4438C86.9951 18.1297 87.4889 20.2134 88.4766 21.6948C89.4642 23.1763 90.8854 23.917 92.7402 23.917C94.5589 23.917 95.9561 23.2064 96.9316 21.7852C97.9072 20.3519 98.401 18.2682 98.4131 15.5342V14.2515ZM119.244 26.0127C117.955 27.5785 116.172 28.3613 113.896 28.3613C111.8 28.3613 110.198 27.7591 109.09 26.5547C107.994 25.3503 107.434 23.5858 107.41 21.2612V8.45215H112.631V21.0806C112.631 23.116 113.559 24.1338 115.414 24.1338C117.184 24.1338 118.401 23.5195 119.063 22.291V8.45215H124.302V28H119.388L119.244 26.0127ZM133.751 28H128.512V8.45215H133.751V28ZM128.205 3.39355C128.205 2.61068 128.464 1.96631 128.981 1.46045C129.511 0.95459 130.228 0.70166 131.131 0.70166C132.023 0.70166 132.733 0.95459 133.263 1.46045C133.793 1.96631 134.058 2.61068 134.058 3.39355C134.058 4.18848 133.787 4.83887 133.245 5.34473C132.715 5.85059 132.011 6.10352 131.131 6.10352C130.252 6.10352 129.542 5.85059 129 5.34473C128.47 4.83887 128.205 4.18848 128.205 3.39355ZM144.067 23.7905H153.624V28H137.4V24.8203L146.596 12.6797H137.671V8.45215H153.335V11.5415L144.067 23.7905ZM162.892 23.7905H172.449V28H156.226V24.8203L165.421 12.6797H156.497V8.45215H172.16V11.5415L162.892 23.7905Z" fill="white"/>
</svg>
